<?xml version="1.0" standalone="no"?>
<!DOCTYPE svg PUBLIC "-//W3C//DTD SVG 20010904//EN"
 "http://www.w3.org/TR/2001/REC-SVG-20010904/DTD/svg10.dtd">
<svg version="1.0" xmlns="http://www.w3.org/2000/svg"
 width="487.000000pt" height="487.000000pt" viewBox="0 0 487.000000 487.000000"
 preserveAspectRatio="xMidYMid meet">
<metadata>
Created by potrace 1.14, written by Peter Selinger 2001-2017
</metadata>
<g transform="translate(0.000000,487.000000) scale(0.100000,-0.100000)"
fill="#000000" stroke="none">
<path d="M2184 4594 c-644 -69 -1227 -426 -1587 -974 -184 -281 -312 -643
-345 -980 -13 -131 -7 -393 13 -520 72 -474 281 -891 611 -1224 657 -661 1662
-830 2498 -422 648 316 1093 926 1202 1646 19 128 26 381 13 510 -97 1005
-853 1800 -1859 1955 -137 22 -394 26 -546 9z"/>
</g>
</svg>
